/* XPM */
static char * player_xpm[] = {
"64 64 12 1",
" 	c None",
".	c #010102",
"+	c #EDA65F",
"@	c #7F3F38",
"#	c #0E070B",
"$	c #312723",
"%	c #FAB6A4",
"&	c #CF766A",
"*	c #A05151",
"=	c #1F1613",
"-	c #D17642",
";	c #201C31",
"                                               ..               ",
"                                              .++.              ",
"                                              .+@.              ",
"                                   ......     .+@.              ",
"                                  .##$$$$.    .+@.              ",
"                                 .##$#####.   .+@.              ",
"                                 .#$###%%%.   .+@.              ",
"                                 .#$##%&&&.   .+@.              ",
"                                 .#&*#%*=%.   .+@.              ",
"                                 .#&&#%%%&.   .+@.              ",
"                                  .#&%%%%&.   .+@.              ",
"                                   .#%%$$.    .+@.              ",
"                                 ...#$$$*.    .+@.              ",
"                                .+-.&..$$.    .+@.              ",
"                               ..+-.%&&..     .+@.              ",
"                              .#.++-.%.       .+@.              ",
"                             .##.++--.        .+@.              ",
"                            .####.++-.        .+@.              ",
"                           .#####.++-.        .+@.              ",
"                          ..#####..+-.        ...               ",
"                         .#.#.###.#.+.       .%%%.              ",
"                         ..##.####.#..     ..%%%%.              ",
"                        .#.###.###.##.   ..##.%..               ",
"                        .#.###.####.#....####..+.               ",
"                       .#.#####.####..######.  .                ",
"                       .#.#####.##########..                    ",
"                       .#.######.#######..                      ",
"                        .########.####..                        ",
"                        .########.##..                          ",
"                       .##########..                            ",
"                       .###########.                            ",
"                       .###########.                            ",
"                      .############.                            ",
"                      .############.                            ",
"                      .#############.                           ",
"                       .############.                           ",
"                       ..###########.                           ",
"                       .;..#########.                           ",
"                       .;;;....###..                            ",
"                       .;;;;;;;...                              ",
"                        .;;;;;;;;.                              ",
"                        .;;;;;;.;.                              ",
"                         .;;;;;.;.                              ",
"                         .;;;;;.;;.                             ",
"                         .;;;;.;;;.                             ",
"                         .;;;;.;;;.                             ",
"                         .;;;;.;;;.                             ",
"                         .;;;.;;;;;.                            ",
"                        .;;;;.;;;;;.                            ",
"                        .;;;;.;;;;;.                            ",
"                      ..;;;;. .;;;;.                            ",
"                    ..;;;;;;. .;;;;.                            ",
"               .....;;;;;...  .;;;.                             ",
"              .#####.;...    .;;;.                              ",
"              .#####..       .;;.                               ",
"              .###..         .;;.                               ",
"             .###.          .;;.                                ",
"             .##.           .;;.                                ",
"             .#.            .;;.                                ",
"             .#.            ...                                 ",
"             ..            .##.                                 ",
"                           .##.                                 ",
"                           .##.                                 ",
"                           .###.                                "};
