/* XPM */
static char * Wall_map_xpm[] = {
"32 32 7 1",
" 	c None",
".	c #38002C",
"+	c #8BABBF",
"@	c #222A5C",
"#	c #566A89",
"$	c #000000",
"%	c #000000",
"$$$$$$$$$$$$$$$$$$$$$$$$$$$$$$$$",
"$++++++++++++++++++++++++++++++$",
"$++++++++++++++++++++++++++++++$",
"$##############################$",
"$##@@######################@@##$",
"$@@@@@@@@@@@@@@@@@@@@@@@@@@@@@@$",
"$$$$$......$$$$$$$$$$......$$$$$",
"     $@@@@$          $@@@@$     ",
"     $@@@@$          $@@@@$     ",
"$$$$$$####$$$$$$$$$$$$####$$$$$$",
"$@@@@######@@@@@@@@@@######@@@@$",
"$@@@@######@@@@@@@@@@######@@@@$",
"$@@@@@@@@@@@@@@@@@@@@@@@@@@@@@@$",
"$##@@######################@@##$",
"$##############################$",
"$$$$$$$$$$$$$$$$$$$$$$$$$$$$$$$$",
"                                ",
"                                ",
"                                ",
"                                ",
"                                ",
"                                ",
"                                ",
"                                ",
"                                ",
"                                ",
"                                ",
"                                ",
"                                ",
"                                ",
"                                ",
"                                "};
